<?xml version="1.0" encoding="utf-8"?>
<!-- Generator: Adobe Illustrator 17.1.0, SVG Export Plug-In . SVG Version: 6.00 Build 0)  -->
<!DOCTYPE svg PUBLIC "-//W3C//DTD SVG 1.1//EN" "http://www.w3.org/Graphics/SVG/1.1/DTD/svg11.dtd">
<svg version="1.1" id="Layer_1" xmlns="http://www.w3.org/2000/svg" xmlns:xlink="http://www.w3.org/1999/xlink" x="0px" y="0px"
	 viewBox="0 0 325 250" enable-background="new 0 0 325 250" xml:space="preserve">
<path id="inbox-6-icon" fill="#604944" d="M225.7,84.4h-85.2l-35.7,58.1v79.1h156.5v-79.1L225.7,84.4z M202.3,170h-38.6
	c-3.5,0-6.4-2.9-6.4-6.4c0-3.5,2.9-6.4,6.4-6.4h38.6c3.5,0,6.4,2.9,6.4,6.4C208.7,167.1,205.8,170,202.3,170z M122.6,142.5
	l26.2-42.9h68.6l26.1,42.9H122.6z M225.4,123.2h-84.3l4.9-8h74.6L225.4,123.2z M217.8,110.8h-69.2l4.2-6.8h60.9L217.8,110.8z
	 M233.5,136.5H132.9l5.1-8.4h90.4L233.5,136.5z"/>
<path id="beer-6-icon" fill="#604944" d="M123.6,153.2c2.9-40.1,26.2-62.1,13.5-116.7c-13.1-8-29.7-12.3-46.7-12.3
	c-16.1,0-32.5,3.9-46.5,12.3C31.2,91.2,54.5,113,57.4,153.2c1.2,15.7-2.3,38.9-4.9,53.1c-4.7,26,80.7,25.9,76,0
	C125.9,192.1,122.5,168.9,123.6,153.2z M67.1,208c2.9-16.6,6.1-39.4,4.9-55.8c-1.2-16.2-5.2-29.2-9.1-41.9
	c-6-19.6-11.2-36.7-6.1-64.1c10-4.8,21.5-7.3,33.5-7.3c12.1,0,23.9,2.5,33.7,7.3c2.1,11.6,2.5,21.3,1.7,30.2
	c-15.5-7.6-42.5-8.1-54.9-1.9c0,28.2,12.4,41.4,14.3,71.7c1.5,23.6-1.2,49.4-5,64C76.3,210,70.6,209.4,67.1,208z"/>
</svg>
