<?xml version="1.0" encoding="utf-8"?>
<!-- Generator: Adobe Illustrator 17.1.0, SVG Export Plug-In . SVG Version: 6.00 Build 0)  -->
<!DOCTYPE svg PUBLIC "-//W3C//DTD SVG 1.1//EN" "http://www.w3.org/Graphics/SVG/1.1/DTD/svg11.dtd">
<svg version="1.1" id="Layer_1" xmlns="http://www.w3.org/2000/svg" xmlns:xlink="http://www.w3.org/1999/xlink" x="0px" y="0px"
	 viewBox="0 -113 512 625" enable-background="new 0 -113 512 625" xml:space="preserve">
<path id="beer-6-icon" fill="#604944" d="M323.7,346.2c6-82.6,53.9-127.9,27.7-240.3c-26.9-16.4-61.2-25.3-96.1-25.3
	c-33.1,0-66.8,8-95.7,25.3c-26.1,112.7,21.7,157.5,27.7,240.3c2.4,32.4-4.8,80.1-10.1,109.3c-9.6,53.6,166.1,53.4,156.4,0
	C328.6,426.3,321.4,378.6,323.7,346.2z M207.4,458.9c6-34.1,12.6-81,10.1-114.8c-2.4-33.3-10.7-60.2-18.7-86.3
	c-12.4-40.3-23.1-75.6-12.6-131.9c20.6-9.9,44.2-15.1,69.1-15.1c24.9,0,49.2,5.2,69.5,15c4.4,23.8,5.1,43.9,3.4,62.2
	c-32-15.7-87.6-16.7-113.1-3.8c0,58.1,25.5,85.1,29.4,147.7c3,48.5-2.5,101.7-10.3,131.8C226.4,463.1,214.7,461.9,207.4,458.9z"/>
<polygon id="star-2-icon" fill="#604944" points="413,-4.5 430,30.6 468.7,36 440.6,63 447.4,101.5 413,83.1 378.6,101.5 385.4,63 
	357.3,36 396,30.6 "/>
<polygon id="star-2-icon_1_" fill="#604944" points="253.3,-101.5 270.3,-66.3 309,-61 280.8,-33.9 287.7,4.5 253.3,-13.9 
	218.8,4.5 225.7,-33.9 197.5,-61 236.2,-66.3 "/>
<polygon id="star-2-icon_2_" fill="#604944" points="93.5,-4.5 110.6,30.6 149.3,36 121.1,63 128,101.5 93.5,83.1 59.1,101.5 66,63 
	37.8,36 76.5,30.6 "/>
</svg>
